<?xml version="1.0" standalone="no"?>
<!DOCTYPE svg PUBLIC "-//W3C//DTD SVG 20010904//EN"
 "http://www.w3.org/TR/2001/REC-SVG-20010904/DTD/svg10.dtd">
<svg version="1.0" xmlns="http://www.w3.org/2000/svg"
 width="1646.000000pt" height="335.000000pt" viewBox="0 0 1646.000000 335.000000"
 preserveAspectRatio="xMidYMid meet">
<metadata>
Created by potrace 1.16, written by Peter Selinger 2001-2019
</metadata>
<g transform="translate(0.000000,335.000000) scale(0.100000,-0.100000)"
fill="#000000" stroke="none">
<path d="M3470 1600 l0 -1460 100 0 100 0 0 45 0 45 -70 0 -70 0 0 1415 0
1415 -30 0 -30 0 0 -1460z"/>
<path d="M1683 2916 c-40 -37 -72 -73 -70 -79 1 -7 -4 -11 -11 -9 -8 1 -11 -2
-8 -7 3 -5 -10 -33 -30 -63 -132 -195 -248 -552 -301 -928 -17 -121 -18 -124
-27 -80 -5 25 -10 46 -11 48 -1 1 -24 -8 -51 -20 -27 -13 -53 -23 -59 -23 -5
-1 -25 -9 -42 -18 -18 -10 -33 -15 -33 -12 0 2 16 53 36 112 68 204 208 498
362 763 14 24 13 24 -3 5 -35 -42 -152 -247 -240 -420 -141 -280 -236 -540
-265 -730 -15 -94 -15 -314 -1 -395 61 -336 302 -630 596 -727 95 -31 291 -43
399 -24 235 41 452 168 566 332 l44 64 -75 -71 c-82 -77 -147 -118 -260 -164
-347 -144 -686 -83 -936 168 -125 125 -223 305 -258 473 -20 95 -19 98 14 52
94 -130 303 -215 601 -244 l125 -11 62 -61 c47 -46 65 -58 75 -50 7 6 24 11
38 12 73 1 90 3 95 11 3 5 22 7 42 4 19 -2 41 0 48 6 11 9 61 11 77 3 9 -5
-34 -92 -75 -152 -34 -50 -32 -52 48 -76 146 -45 236 -25 328 75 28 31 60 72
71 90 l19 33 -45 -7 c-54 -8 -119 5 -190 39 -74 35 -143 80 -141 91 1 5 17 12
35 15 57 10 149 40 216 70 161 72 261 168 270 258 12 127 -43 277 -144 392
-31 35 -176 186 -323 334 -271 274 -331 344 -331 388 0 13 18 49 41 80 22 32
38 57 36 57 -1 0 -19 -11 -38 -25 l-34 -26 -5 38 c-8 59 0 313 10 313 5 0 11
-8 14 -17 4 -14 4 -13 3 2 -4 30 -40 22 -108 -25 l-57 -39 -11 82 c-6 45 -12
99 -13 121 l-3 39 -72 -67z m272 -1546 c22 -10 68 -19 135 -27 25 -3 49 -8 53
-12 12 -11 -126 -49 -218 -60 l-80 -10 -27 32 c-32 37 -33 45 -14 73 13 18 23
20 73 17 32 -3 67 -8 78 -13z"/>
<path d="M6821 2074 c-26 -33 -30 -137 -6 -171 42 -59 198 -54 230 7 23 44 20
47 -40 42 -96 -8 -145 32 -145 118 0 37 -12 38 -39 4z"/>
<path d="M8871 2074 c-26 -33 -30 -137 -6 -171 42 -59 198 -54 230 7 8 16 15
31 15 35 0 3 -32 5 -71 5 -65 0 -73 2 -100 29 -24 24 -29 38 -29 75 0 52 -10
57 -39 20z"/>
<path d="M5460 2010 l0 -80 145 0 145 0 2 -437 3 -438 33 -3 32 -3 0 485 0
486 -145 0 -145 0 0 35 c0 33 -2 35 -35 35 l-35 0 0 -80z"/>
<path d="M4450 1420 l0 -600 380 0 380 0 0 45 0 45 -345 0 -345 0 0 555 0 555
-35 0 -35 0 0 -600z"/>
<path d="M12000 1945 c-43 -20 -77 -51 -97 -89 l-16 -30 26 17 c42 27 111 39
164 26 69 -15 110 -51 145 -126 17 -35 36 -62 42 -60 6 2 43 14 81 27 39 12
74 26 78 30 4 4 3 19 -2 33 l-10 26 -46 -16 c-25 -8 -48 -14 -49 -12 -2 2 -18
32 -35 66 -42 85 -89 116 -180 120 -44 2 -78 -2 -101 -12z"/>
<path d="M4710 1895 l0 -45 250 0 250 0 0 45 0 45 -250 0 -250 0 0 -45z"/>
<path d="M11704 1898 c-152 -181 -165 -698 -22 -921 42 -65 109 -122 177 -149
47 -18 76 -22 176 -23 116 0 123 1 187 33 43 21 83 51 112 83 59 65 59 78 0
34 -60 -46 -137 -67 -245 -67 -175 0 -292 69 -364 215 -60 124 -70 178 -70
392 1 205 12 278 60 383 13 28 22 52 20 52 -2 0 -16 -15 -31 -32z"/>
<path d="M6530 1630 l0 -80 150 0 150 0 2 -247 3 -248 30 0 30 0 0 290 0 290
-147 3 -148 3 0 34 c0 33 -2 35 -35 35 l-35 0 0 -80z"/>
<path d="M7491 1678 c13 -18 75 -105 139 -193 64 -88 124 -172 134 -187 l18
-28 -161 -219 c-89 -121 -161 -222 -161 -225 0 -3 48 -6 108 -6 l107 0 27 43
27 42 -98 5 -99 5 155 210 c85 116 157 215 159 221 3 6 -52 91 -122 188 l-128
176 -64 0 -63 0 22 -32z"/>
<path d="M8580 1630 l0 -80 150 0 150 0 2 -247 3 -248 30 0 30 0 3 287 2 287
-152 3 -153 3 -3 38 c-3 34 -6 37 -33 37 l-29 0 0 -80z"/>
<path d="M9560 1630 l0 -80 120 0 120 0 0 -245 0 -245 30 0 30 0 0 285 0 285
-115 0 -115 0 0 40 c0 39 -1 40 -35 40 l-35 0 0 -80z"/>
<path d="M13660 1630 l0 -80 120 0 120 0 0 -245 0 -245 30 0 30 0 0 285 0 285
-115 0 -115 0 0 40 c0 39 -1 40 -35 40 l-35 0 0 -80z"/>
<path d="M15077 1660 c-57 -10 -94 -32 -109 -66 -15 -32 -9 -36 38 -23 53 15
172 5 226 -19 24 -10 60 -33 79 -50 l36 -31 57 58 c32 32 54 61 48 65 -5 3
-17 -3 -27 -14 -17 -19 -18 -19 -48 6 -48 41 -102 63 -174 74 -37 5 -70 9 -73
9 -3 -1 -27 -5 -53 -9z"/>
<path d="M12925 1637 c-28 -13 -64 -40 -82 -60 l-32 -36 -57 46 -57 47 -28
-32 c-16 -18 -29 -38 -29 -45 0 -13 95 -97 109 -97 4 0 23 16 42 36 65 68 152
94 246 74 62 -14 109 -58 121 -115 7 -36 11 -40 41 -43 l34 -3 -5 76 c-5 81
-19 110 -72 149 -43 33 -165 34 -231 3z"/>
<path d="M14757 1610 c-33 -38 -47 -88 -47 -164 0 -109 58 -184 170 -221 26
-9 112 -27 191 -40 156 -27 188 -41 203 -94 5 -17 12 -31 17 -31 18 0 49 55
49 87 0 78 -28 94 -228 127 -172 29 -245 57 -292 114 -40 48 -56 124 -42 194
5 29 9 54 7 56 -1 2 -14 -11 -28 -28z"/>
<path d="M10208 1600 c-43 -13 -96 -49 -118 -80 -28 -39 -26 -42 23 -20 34 16
65 20 165 20 l122 0 0 45 0 45 -82 -1 c-46 0 -95 -4 -110 -9z"/>
<path d="M14310 1601 c-46 -14 -87 -40 -114 -71 -37 -44 -32 -52 17 -30 34 16
65 20 165 20 l122 0 0 45 0 45 -82 -1 c-46 0 -94 -4 -108 -8z"/>
<path d="M4710 1385 l0 -45 240 0 240 0 0 45 0 45 -240 0 -240 0 0 -45z"/>
<path d="M12933 1271 c-26 -12 -48 -32 -58 -52 l-17 -32 24 8 c12 4 83 9 157
12 l134 5 -5 -75 c-5 -71 -4 -75 13 -66 33 17 49 64 49 144 l0 75 -127 0
c-104 0 -136 -4 -170 -19z"/>
<path d="M12656 1223 c-71 -107 -60 -256 26 -340 55 -54 104 -74 198 -80 111
-8 180 14 244 78 54 55 56 70 5 40 -47 -28 -145 -42 -219 -31 -163 23 -255
148 -229 312 5 29 7 54 4 56 -2 2 -15 -14 -29 -35z"/>
<path d="M7916 1182 l-27 -39 112 -162 113 -161 113 0 c62 0 113 3 113 6 0 8
-42 67 -55 77 -5 4 -32 6 -59 5 l-49 -3 -107 154 c-58 85 -111 156 -117 158
-5 2 -22 -14 -37 -35z"/>
<path d="M13230 1040 c0 -6 -12 -28 -26 -50 l-26 -39 22 -47 c31 -63 76 -83
188 -84 l82 0 0 45 0 45 -60 0 c-34 0 -74 7 -90 15 -30 15 -70 72 -70 98 0 9
-4 19 -10 22 -5 3 -10 1 -10 -5z"/>
<path d="M14690 1005 l-34 -35 35 -36 c49 -50 172 -109 260 -124 101 -17 248
-8 322 20 69 26 134 74 160 117 l19 32 -57 -34 c-71 -42 -142 -58 -265 -57
-150 0 -274 40 -359 117 -21 19 -40 35 -43 35 -2 0 -19 -16 -38 -35z"/>
<path d="M5460 900 l0 -80 390 0 390 0 0 45 0 45 -355 0 -355 0 0 35 c0 33 -2
35 -35 35 l-35 0 0 -80z"/>
<path d="M6530 900 l0 -80 390 0 390 0 0 45 0 45 -355 0 -355 0 0 35 c0 33 -2
35 -35 35 l-35 0 0 -80z"/>
<path d="M8580 900 l0 -80 391 0 390 0 -3 43 -3 42 -352 3 -353 2 0 35 c0 33
-2 35 -35 35 l-35 0 0 -80z"/>
<path d="M9560 900 l0 -80 375 0 375 0 0 45 0 46 -342 -2 -343 -1 -3 36 c-3
32 -6 36 -33 36 l-29 0 0 -80z"/>
<path d="M13660 900 l0 -80 375 0 375 0 0 45 0 45 -340 0 -340 0 0 35 c0 33
-2 35 -35 35 l-35 0 0 -80z"/>
</g>
</svg>
